<svg xmlns="http://www.w3.org/2000/svg" viewBox="0 0 360 200" fill="none">
  <defs>
    <linearGradient id="g1" x1="0%" y1="0%" x2="100%" y2="100%">
      <stop offset="0%" stop-color="#8B5CF6"/><stop offset="50%" stop-color="#3B82F6"/><stop offset="100%" stop-color="#06B6D4"/>
    </linearGradient>
    <linearGradient id="g2" x1="0%" y1="0%" x2="0%" y2="100%">
      <stop offset="0%" stop-color="#8B5CF6" stop-opacity="0.12"/><stop offset="100%" stop-color="#06B6D4" stop-opacity="0.03"/>
    </linearGradient>
    <radialGradient id="gl" cx="50%" cy="50%" r="50%">
      <stop offset="0%" stop-color="#8B5CF6" stop-opacity="0.15"/><stop offset="100%" stop-color="#8B5CF6" stop-opacity="0"/>
    </radialGradient>
  </defs>
  <circle cx="180" cy="100" r="140" fill="url(#gl)"/>
  <!-- Open book (left) -->
  <path d="M30 140 Q70 115 110 125 Q110 110 110 105 Q70 95 30 110 Z" fill="url(#g2)" stroke="url(#g1)" stroke-width="1.5"/>
  <path d="M110 105 Q150 95 190 110 L190 140 Q150 125 110 140 Z" fill="url(#g2)" stroke="url(#g1)" stroke-width="1.5"/>
  <line x1="110" y1="105" x2="110" y2="140" stroke="url(#g1)" stroke-width="1" opacity="0.3"/>
  <!-- Book page lines -->
  <line x1="45" y1="115" x2="100" y2="108" stroke="url(#g1)" stroke-width="0.5" opacity="0.2"/>
  <line x1="45" y1="122" x2="100" y2="115" stroke="url(#g1)" stroke-width="0.5" opacity="0.2"/>
  <line x1="120" y1="112" x2="175" y2="118" stroke="url(#g1)" stroke-width="0.5" opacity="0.2"/>
  <line x1="120" y1="120" x2="175" y2="126" stroke="url(#g1)" stroke-width="0.5" opacity="0.2"/>
  <!-- Graduation cap (center-top) -->
  <polygon points="180,28 240,52 180,72 120,52" fill="url(#g1)" opacity="0.85"/>
  <line x1="180" y1="72" x2="180" y2="90" stroke="url(#g1)" stroke-width="2"/>
  <rect x="175" y="86" width="10" height="5" rx="2" fill="url(#g1)" opacity="0.6"/>
  <path d="M225 52 Q232 62 230 78 Q228 88 232 95" stroke="url(#g1)" stroke-width="2" fill="none" stroke-linecap="round"/>
  <circle cx="232" cy="97" r="3" fill="#8B5CF6"/>
  <!-- AI brain (right) -->
  <path d="M250 60 Q235 55 230 68 Q225 82 238 92 Q248 98 260 90" stroke="url(#g1)" stroke-width="2" fill="url(#g2)"/>
  <path d="M270 60 Q285 55 290 68 Q295 82 282 92 Q272 98 260 90" stroke="url(#g1)" stroke-width="2" fill="url(#g2)"/>
  <path d="M250 60 Q260 48 270 60" stroke="url(#g1)" stroke-width="2" fill="none"/>
  <line x1="260" y1="48" x2="260" y2="90" stroke="url(#g1)" stroke-width="1" opacity="0.3"/>
  <!-- Brain circuit nodes -->
  <circle cx="245" cy="68" r="3" fill="#8B5CF6" opacity="0.7"/>
  <circle cx="275" cy="68" r="3" fill="#3B82F6" opacity="0.7"/>
  <circle cx="250" cy="82" r="3" fill="#06B6D4" opacity="0.7"/>
  <circle cx="270" cy="82" r="3" fill="#3B82F6" opacity="0.7"/>
  <circle cx="260" cy="56" r="3" fill="#8B5CF6" opacity="0.7"/>
  <line x1="245" y1="68" x2="260" y2="56" stroke="#8B5CF6" stroke-width="0.8" opacity="0.5"/>
  <line x1="275" y1="68" x2="260" y2="56" stroke="#3B82F6" stroke-width="0.8" opacity="0.5"/>
  <line x1="250" y1="82" x2="260" y2="90" stroke="#06B6D4" stroke-width="0.8" opacity="0.5"/>
  <line x1="270" y1="82" x2="260" y2="90" stroke="#3B82F6" stroke-width="0.8" opacity="0.5"/>
  <!-- Handshake (bottom center) -->
  <path d="M145 165 L165 155 L180 158 L195 155 L215 165" stroke="url(#g1)" stroke-width="2.5" fill="none" stroke-linecap="round" stroke-linejoin="round"/>
  <path d="M155 162 L165 158" stroke="#8B5CF6" stroke-width="1.5" opacity="0.5"/>
  <path d="M205 162 L195 158" stroke="#06B6D4" stroke-width="1.5" opacity="0.5"/>
  <!-- Connection lines -->
  <line x1="180" y1="90" x2="180" y2="105" stroke="url(#g1)" stroke-width="1" opacity="0.3" stroke-dasharray="3,3"/>
  <line x1="190" y1="72" x2="250" y2="75" stroke="url(#g1)" stroke-width="0.8" opacity="0.2" stroke-dasharray="4,4"/>
  <line x1="110" y1="125" x2="145" y2="160" stroke="url(#g1)" stroke-width="0.8" opacity="0.2" stroke-dasharray="4,4"/>
  <line x1="190" y1="125" x2="215" y2="160" stroke="url(#g1)" stroke-width="0.8" opacity="0.2" stroke-dasharray="4,4"/>
  <!-- Particles -->
  <circle cx="35" cy="60" r="2" fill="#8B5CF6" opacity="0.3"/>
  <circle cx="325" cy="45" r="2" fill="#06B6D4" opacity="0.3"/>
  <circle cx="50" cy="170" r="1.5" fill="#3B82F6" opacity="0.2"/>
  <circle cx="310" cy="160" r="1.5" fill="#8B5CF6" opacity="0.2"/>
  <circle cx="180" cy="100" r="145" stroke="url(#g1)" stroke-width="0.3" fill="none" opacity="0.08" stroke-dasharray="8,12"/>
</svg>
