<svg xmlns="http://www.w3.org/2000/svg" viewBox="0 0 280 180" fill="none">
  <defs>
    <linearGradient id="g1" x1="0%" y1="0%" x2="100%" y2="100%">
      <stop offset="0%" stop-color="#8B5CF6"/><stop offset="50%" stop-color="#3B82F6"/><stop offset="100%" stop-color="#06B6D4"/>
    </linearGradient>
    <linearGradient id="g2" x1="0%" y1="0%" x2="0%" y2="100%">
      <stop offset="0%" stop-color="#3B82F6" stop-opacity="0.1"/><stop offset="100%" stop-color="#06B6D4" stop-opacity="0.02"/>
    </linearGradient>
    <radialGradient id="gl" cx="50%" cy="50%" r="50%">
      <stop offset="0%" stop-color="#3B82F6" stop-opacity="0.12"/><stop offset="100%" stop-color="#3B82F6" stop-opacity="0"/>
    </radialGradient>
  </defs>
  <circle cx="140" cy="90" r="120" fill="url(#gl)"/>
  <!-- Film strip top -->
  <rect x="25" y="18" width="230" height="22" rx="4" stroke="url(#g1)" stroke-width="1.5" fill="url(#g2)"/>
  <rect x="31" y="22" width="8" height="5" rx="1" fill="url(#g1)" opacity="0.25"/>
  <rect x="45" y="22" width="8" height="5" rx="1" fill="url(#g1)" opacity="0.25"/>
  <rect x="59" y="22" width="8" height="5" rx="1" fill="url(#g1)" opacity="0.25"/>
  <rect x="73" y="22" width="8" height="5" rx="1" fill="url(#g1)" opacity="0.25"/>
  <rect x="87" y="22" width="8" height="5" rx="1" fill="url(#g1)" opacity="0.25"/>
  <rect x="101" y="22" width="8" height="5" rx="1" fill="url(#g1)" opacity="0.25"/>
  <rect x="115" y="22" width="8" height="5" rx="1" fill="url(#g1)" opacity="0.25"/>
  <rect x="129" y="22" width="8" height="5" rx="1" fill="url(#g1)" opacity="0.25"/>
  <rect x="143" y="22" width="8" height="5" rx="1" fill="url(#g1)" opacity="0.25"/>
  <rect x="157" y="22" width="8" height="5" rx="1" fill="url(#g1)" opacity="0.25"/>
  <rect x="171" y="22" width="8" height="5" rx="1" fill="url(#g1)" opacity="0.25"/>
  <rect x="185" y="22" width="8" height="5" rx="1" fill="url(#g1)" opacity="0.25"/>
  <rect x="199" y="22" width="8" height="5" rx="1" fill="url(#g1)" opacity="0.25"/>
  <rect x="213" y="22" width="8" height="5" rx="1" fill="url(#g1)" opacity="0.25"/>
  <rect x="227" y="22" width="8" height="5" rx="1" fill="url(#g1)" opacity="0.25"/>
  <rect x="241" y="22" width="8" height="5" rx="1" fill="url(#g1)" opacity="0.25"/>
  <!-- Main screen -->
  <rect x="35" y="52" width="210" height="80" rx="8" stroke="url(#g1)" stroke-width="2" fill="url(#g2)"/>
  <!-- Screen scene -->
  <path d="M40 118 L70 85 L100 105 L140 70 L185 95 L210 78 L240 118 Z" fill="url(#g1)" opacity="0.08"/>
  <circle cx="215" cy="72" r="10" fill="#F59E0B" opacity="0.25"/>
  <!-- Play button -->
  <circle cx="140" cy="92" r="22" stroke="url(#g1)" stroke-width="2" fill="url(#g2)"/>
  <polygon points="133,80 133,104 155,92" fill="url(#g1)" opacity="0.6"/>
  <!-- Text input bar -->
  <rect x="45" y="145" width="190" height="20" rx="10" stroke="url(#g1)" stroke-width="1.5" fill="url(#g2)"/>
  <text x="72" y="159" font-family="'Noto Sans SC',sans-serif" font-size="8" fill="#3B82F6" opacity="0.5">输入文字描述...</text>
  <rect x="218" y="149" width="8" height="12" rx="1" fill="url(#g1)" opacity="0.35"/>
  <!-- Arrow up -->
  <path d="M140 145 L140 137" stroke="url(#g1)" stroke-width="1.5" opacity="0.25"/>
  <polygon points="136,139 140,132 144,139" fill="url(#g1)" opacity="0.35"/>
  <!-- Sparkles -->
  <circle cx="20" cy="60" r="2" fill="#3B82F6" opacity="0.25"/>
  <circle cx="260" cy="55" r="2" fill="#06B6D4" opacity="0.25"/>
  <circle cx="140" cy="90" r="125" stroke="url(#g1)" stroke-width="0.3" fill="none" opacity="0.06" stroke-dasharray="6,10"/>
</svg>
