<svg xmlns="http://www.w3.org/2000/svg" viewBox="0 0 280 180" fill="none">
  <defs>
    <linearGradient id="g1" x1="0%" y1="0%" x2="100%" y2="100%">
      <stop offset="0%" stop-color="#8B5CF6"/><stop offset="50%" stop-color="#3B82F6"/><stop offset="100%" stop-color="#06B6D4"/>
    </linearGradient>
    <linearGradient id="g2" x1="0%" y1="0%" x2="0%" y2="100%">
      <stop offset="0%" stop-color="#8B5CF6" stop-opacity="0.1"/><stop offset="100%" stop-color="#3B82F6" stop-opacity="0.02"/>
    </linearGradient>
    <radialGradient id="gl" cx="50%" cy="50%" r="50%">
      <stop offset="0%" stop-color="#8B5CF6" stop-opacity="0.1"/><stop offset="100%" stop-color="#8B5CF6" stop-opacity="0"/>
    </radialGradient>
  </defs>
  <circle cx="140" cy="90" r="120" fill="url(#gl)"/>
  <!-- User message bubble (left) -->
  <rect x="15" y="28" width="130" height="42" rx="12" stroke="url(#g1)" stroke-width="1.5" fill="url(#g2)"/>
  <rect x="28" y="40" width="55" height="4" rx="2" fill="url(#g1)" opacity="0.28"/>
  <rect x="28" y="50" width="80" height="4" rx="2" fill="url(#g1)" opacity="0.18"/>
  <rect x="28" y="58" width="45" height="4" rx="2" fill="url(#g1)" opacity="0.12"/>
  <path d="M38 70 L32 82 L52 70" fill="url(#g2)" stroke="url(#g1)" stroke-width="0.8"/>
  <!-- AI response bubble (right) -->
  <rect x="135" y="88" width="130" height="52" rx="12" stroke="url(#g1)" stroke-width="1.5" fill="url(#g2)"/>
  <rect x="148" y="100" width="70" height="4" rx="2" fill="url(#g1)" opacity="0.28"/>
  <rect x="148" y="110" width="95" height="4" rx="2" fill="url(#g1)" opacity="0.18"/>
  <rect x="148" y="118" width="55" height="4" rx="2" fill="url(#g1)" opacity="0.12"/>
  <rect x="148" y="126" width="80" height="4" rx="2" fill="url(#g1)" opacity="0.08"/>
  <path d="M250 140 L256 152 L240 140" fill="url(#g2)" stroke="url(#g1)" stroke-width="0.8"/>
  <!-- AI brain icon (center bridge) -->
  <circle cx="140" cy="78" r="16" stroke="url(#g1)" stroke-width="2" fill="url(#g2)"/>
  <path d="M133 72 Q140 65 147 72" stroke="url(#g1)" stroke-width="1.2" fill="none"/>
  <circle cx="140" cy="72" r="2.5" fill="#8B5CF6" opacity="0.55"/>
  <line x1="140" y1="72" x2="140" y2="85" stroke="url(#g1)" stroke-width="0.8" opacity="0.3"/>
  <!-- Model badges -->
  <rect x="20" y="155" width="38" height="15" rx="7.5" stroke="#8B5CF6" stroke-width="1" fill="url(#g2)"/>
  <text x="39" y="165.5" font-family="'Space Grotesk',sans-serif" font-size="7" fill="#8B5CF6" text-anchor="middle">GPT</text>
  <rect x="65" y="155" width="45" height="15" rx="7.5" stroke="#3B82F6" stroke-width="1" fill="url(#g2)"/>
  <text x="87.5" y="165.5" font-family="'Space Grotesk',sans-serif" font-size="7" fill="#3B82F6" text-anchor="middle">Claude</text>
  <rect x="118" y="155" width="48" height="15" rx="7.5" stroke="#06B6D4" stroke-width="1" fill="url(#g2)"/>
  <text x="142" y="165.5" font-family="'Space Grotesk',sans-serif" font-size="7" fill="#06B6D4" text-anchor="middle">Gemini</text>
  <rect x="174" y="155" width="35" height="15" rx="7.5" stroke="#10B981" stroke-width="1" fill="url(#g2)"/>
  <text x="191.5" y="165.5" font-family="'Noto Sans SC',sans-serif" font-size="7" fill="#10B981" text-anchor="middle">千问</text>
  <rect x="217" y="155" width="42" height="15" rx="7.5" stroke="#F59E0B" stroke-width="1" fill="url(#g2)"/>
  <text x="238" y="165.5" font-family="'Space Grotesk',sans-serif" font-size="7" fill="#F59E0B" text-anchor="middle">Llama</text>
  <!-- Sparkles -->
  <circle cx="10" cy="20" r="2" fill="#8B5CF6" opacity="0.25"/>
  <circle cx="270" cy="22" r="2" fill="#06B6D4" opacity="0.25"/>
  <circle cx="140" cy="90" r="125" stroke="url(#g1)" stroke-width="0.3" fill="none" opacity="0.06" stroke-dasharray="6,10"/>
</svg>
