<svg xmlns="http://www.w3.org/2000/svg" viewBox="0 0 280 180" fill="none">
  <defs>
    <linearGradient id="g1" x1="0%" y1="0%" x2="100%" y2="100%">
      <stop offset="0%" stop-color="#8B5CF6"/><stop offset="50%" stop-color="#3B82F6"/><stop offset="100%" stop-color="#06B6D4"/>
    </linearGradient>
    <linearGradient id="g2" x1="0%" y1="0%" x2="0%" y2="100%">
      <stop offset="0%" stop-color="#10B981" stop-opacity="0.1"/><stop offset="100%" stop-color="#10B981" stop-opacity="0.02"/>
    </linearGradient>
    <radialGradient id="gl" cx="50%" cy="45%" r="50%">
      <stop offset="0%" stop-color="#10B981" stop-opacity="0.12"/><stop offset="100%" stop-color="#10B981" stop-opacity="0"/>
    </radialGradient>
  </defs>
  <circle cx="140" cy="72" r="120" fill="url(#gl)"/>
  <!-- Central AI brain -->
  <circle cx="140" cy="62" r="30" stroke="url(#g1)" stroke-width="2" fill="url(#g2)"/>
  <path d="M126 50 Q140 40 154 50" stroke="url(#g1)" stroke-width="1.5" fill="none"/>
  <circle cx="140" cy="52" r="3.5" fill="#10B981" opacity="0.6"/>
  <line x1="140" y1="52" x2="140" y2="72" stroke="url(#g1)" stroke-width="1" opacity="0.3"/>
  <!-- Neural nodes -->
  <circle cx="118" cy="55" r="3" fill="#8B5CF6" opacity="0.5"/>
  <circle cx="162" cy="55" r="3" fill="#3B82F6" opacity="0.5"/>
  <circle cx="122" cy="72" r="3" fill="#06B6D4" opacity="0.5"/>
  <circle cx="158" cy="72" r="3" fill="#3B82F6" opacity="0.5"/>
  <line x1="118" y1="55" x2="140" y2="52" stroke="#8B5CF6" stroke-width="0.7" opacity="0.4"/>
  <line x1="162" y1="55" x2="140" y2="52" stroke="#3B82F6" stroke-width="0.7" opacity="0.4"/>
  <line x1="122" y1="72" x2="140" y2="72" stroke="#06B6D4" stroke-width="0.7" opacity="0.4"/>
  <line x1="158" y1="72" x2="140" y2="72" stroke="#3B82F6" stroke-width="0.7" opacity="0.4"/>
  <!-- Pulse ring -->
  <circle cx="140" cy="62" r="42" stroke="url(#g1)" stroke-width="1" fill="none" opacity="0.2" stroke-dasharray="6,4"/>
  <!-- Model labels -->
  <rect x="22" y="115" width="50" height="18" rx="9" stroke="#10B981" stroke-width="1" fill="url(#g2)"/>
  <text x="47" y="127.5" font-family="'Space Grotesk',sans-serif" font-size="8" fill="#10B981" text-anchor="middle" font-weight="600">GPT-4o</text>
  <rect x="80" y="115" width="55" height="18" rx="9" stroke="#3B82F6" stroke-width="1" fill="url(#g2)"/>
  <text x="107.5" y="127.5" font-family="'Space Grotesk',sans-serif" font-size="8" fill="#3B82F6" text-anchor="middle" font-weight="600">DALL·E 3</text>
  <rect x="143" y="115" width="50" height="18" rx="9" stroke="#8B5CF6" stroke-width="1" fill="url(#g2)"/>
  <text x="168" y="127.5" font-family="'Space Grotesk',sans-serif" font-size="8" fill="#8B5CF6" text-anchor="middle" font-weight="600">GPT-4</text>
  <rect x="201" y="115" width="58" height="18" rx="9" stroke="#06B6D4" stroke-width="1" fill="url(#g2)"/>
  <text x="230" y="127.5" font-family="'Space Grotesk',sans-serif" font-size="8" fill="#06B6D4" text-anchor="middle" font-weight="600">Whisper</text>
  <!-- Connections to labels -->
  <line x1="125" y1="92" x2="47" y2="115" stroke="#10B981" stroke-width="0.5" opacity="0.15" stroke-dasharray="3,3"/>
  <line x1="135" y1="95" x2="107.5" y2="115" stroke="#3B82F6" stroke-width="0.5" opacity="0.15" stroke-dasharray="3,3"/>
  <line x1="145" y1="95" x2="168" y2="115" stroke="#8B5CF6" stroke-width="0.5" opacity="0.15" stroke-dasharray="3,3"/>
  <line x1="155" y1="92" x2="230" y2="115" stroke="#06B6D4" stroke-width="0.5" opacity="0.15" stroke-dasharray="3,3"/>
  <!-- Sparkles -->
  <circle cx="30" cy="30" r="2" fill="#10B981" opacity="0.2"/>
  <circle cx="250" cy="28" r="2" fill="#8B5CF6" opacity="0.2"/>
  <circle cx="140" cy="90" r="125" stroke="url(#g1)" stroke-width="0.3" fill="none" opacity="0.05" stroke-dasharray="6,10"/>
</svg>
